<svg aria-hidden="true" style="position: absolute; width: 0; height: 0; overflow: hidden;" version="1.1" xmlns="http://www.w3.org/2000/svg" xmlns:xlink="http://www.w3.org/1999/xlink">
<defs>
<symbol id="icon-home2" viewBox="0 0 32 32">
<path d="M16 1l-16 16 3 3 3-3v13h8v-6h4v6h8v-13l3 3 3-3-16-16zM16 14c-1.105 0-2-0.895-2-2s0.895-2 2-2c1.105 0 2 0.895 2 2s-0.895 2-2 2z"></path>
</symbol>
<symbol id="icon-location" viewBox="0 0 32 32">
<path d="M16 0c-5.523 0-10 4.477-10 10 0 10 10 22 10 22s10-12 10-22c0-5.523-4.477-10-10-10zM16 16c-3.314 0-6-2.686-6-6s2.686-6 6-6 6 2.686 6 6-2.686 6-6 6z"></path>
</symbol>
<symbol id="icon-map2" viewBox="0 0 32 32">
<path d="M21 6l-10-4-11 4v24l11-4 10 4 11-4v-24l-11 4zM12 4.554l8 3.2v19.692l-8-3.2v-19.692zM2 7.401l8-2.909v19.744l-8 2.909v-19.744zM30 24.599l-8 2.909v-19.744l8-2.909v19.744z"></path>
</symbol>
<symbol id="icon-search" viewBox="0 0 32 32">
<path d="M31.008 27.231l-7.58-6.447c-0.784-0.705-1.622-1.029-2.299-0.998 1.789-2.096 2.87-4.815 2.87-7.787 0-6.627-5.373-12-12-12s-12 5.373-12 12 5.373 12 12 12c2.972 0 5.691-1.081 7.787-2.87-0.031 0.677 0.293 1.515 0.998 2.299l6.447 7.58c1.104 1.226 2.907 1.33 4.007 0.23s0.997-2.903-0.23-4.007zM12 20c-4.418 0-8-3.582-8-8s3.582-8 8-8 8 3.582 8 8-3.582 8-8 8z"></path>
</symbol>
<symbol id="icon-key" viewBox="0 0 32 32">
<path d="M22 0c-5.523 0-10 4.477-10 10 0 0.626 0.058 1.238 0.168 1.832l-12.168 12.168v6c0 1.105 0.895 2 2 2h2v-2h4v-4h4v-4h4l2.595-2.595c1.063 0.385 2.209 0.595 3.405 0.595 5.523 0 10-4.477 10-10s-4.477-10-10-10zM24.996 10.004c-1.657 0-3-1.343-3-3s1.343-3 3-3 3 1.343 3 3-1.343 3-3 3z"></path>
</symbol>
<symbol id="icon-airplane" viewBox="0 0 32 32">
<path d="M24 19.999l-5.713-5.713 13.713-10.286-4-4-17.141 6.858-5.397-5.397c-1.556-1.556-3.728-1.928-4.828-0.828s-0.727 3.273 0.828 4.828l5.396 5.396-6.858 17.143 4 4 10.287-13.715 5.713 5.713v7.999h4l2-6 6-2v-4l-7.999 0z"></path>
</symbol>
<symbol id="icon-bookmark" viewBox="0 0 32 32">
<path d="M6 0v32l10-10 10 10v-32z"></path>
</symbol>
<symbol id="icon-star-full" viewBox="0 0 32 32">
<path d="M32 12.408l-11.056-1.607-4.944-10.018-4.944 10.018-11.056 1.607 8 7.798-1.889 11.011 9.889-5.199 9.889 5.199-1.889-11.011 8-7.798z"></path>
</symbol>
<symbol id="icon-heart" viewBox="0 0 32 32">
<path d="M23.6 2c-3.363 0-6.258 2.736-7.599 5.594-1.342-2.858-4.237-5.594-7.601-5.594-4.637 0-8.4 3.764-8.4 8.401 0 9.433 9.516 11.906 16.001 21.232 6.13-9.268 15.999-12.1 15.999-21.232 0-4.637-3.763-8.401-8.4-8.401z"></path>
</symbol>
<symbol id="icon-arrow-right2" viewBox="0 0 32 32">
<path d="M19.414 27.414l10-10c0.781-0.781 0.781-2.047 0-2.828l-10-10c-0.781-0.781-2.047-0.781-2.828 0s-0.781 2.047 0 2.828l6.586 6.586h-19.172c-1.105 0-2 0.895-2 2s0.895 2 2 2h19.172l-6.586 6.586c-0.39 0.39-0.586 0.902-0.586 1.414s0.195 1.024 0.586 1.414c0.781 0.781 2.047 0.781 2.828 0z"></path>
</symbol>
</defs>
</svg>
